<?xml version="1.0" encoding="UTF-8" standalone="no"?>
<!DOCTYPE svg PUBLIC "-//W3C//DTD SVG 1.1//EN" "http://www.w3.org/Graphics/SVG/1.1/DTD/svg11.dtd">
<!-- 由 Microsoft Visio, SVG Export 生成 attention.svg Page-1 -->
<svg xmlns="http://www.w3.org/2000/svg" xmlns:xlink="http://www.w3.org/1999/xlink" xmlns:ev="http://www.w3.org/2001/xml-events"
		xmlns:v="http://schemas.microsoft.com/visio/2003/SVGExtensions/" width="11.6929in" height="8.26772in"
		viewBox="0 0 841.89 595.276" xml:space="preserve" color-interpolation-filters="sRGB" class="st15">
	<v:documentProperties v:langID="2052" v:metric="true" v:viewMarkup="false">
		<v:userDefs>
			<v:ud v:nameU="msvSubprocessMaster" v:prompt="" v:val="VT4(Rectangle)"/>
			<v:ud v:nameU="msvNoAutoConnect" v:val="VT0(1):26"/>
		</v:userDefs>
	</v:documentProperties>

	<style type="text/css">
	<![CDATA[
		.st1 {fill:none;stroke:#dd8c9e;stroke-dasharray:1.75,1.25;stroke-width:0.25}
		.st2 {fill:#ff99cc;stroke:#000000;stroke-width:0.5}
		.st3 {fill:#000000;font-family:Calibri;font-size:1.00001em}
		.st4 {marker-end:url(#mrkr4-11);stroke:#000000;stroke-linecap:round;stroke-linejoin:round;stroke-width:1}
		.st5 {fill:#000000;fill-opacity:1;stroke:#000000;stroke-opacity:1;stroke-width:0.28409090909091}
		.st6 {fill:#bdd0e9;stroke:#000000;stroke-width:0.5}
		.st7 {fill:#dd8c9e;stroke:#000000;stroke-width:0.5}
		.st8 {fill:#a8d08d;stroke:#000000;stroke-width:0.5}
		.st9 {fill:#dd8c9e;stroke:#000000;stroke-width:0.25}
		.st10 {marker-end:url(#mrkr4-30);stroke:#000000;stroke-linecap:round;stroke-linejoin:round;stroke-width:1}
		.st11 {fill:#f898cf;stroke:#000000;stroke-width:0.5}
		.st12 {fill:#fee599;stroke:#000000;stroke-width:0.5}
		.st13 {fill:#e2e4b6;stroke:#000000;stroke-width:0.5}
		.st14 {fill:#b5c6e7;stroke:#000000;stroke-width:0.5}
		.st15 {fill:none;fill-rule:evenodd;font-size:12px;overflow:visible;stroke-linecap:square;stroke-miterlimit:3}
	]]>
	</style>

	<defs id="Markers">
		<g id="lend4">
			<path d="M 2 1 L 0 0 L 2 -1 L 2 1 " style="stroke:none"/>
		</g>
		<marker id="mrkr4-11" class="st5" v:arrowType="4" v:arrowSize="2" v:setback="7.04" refX="-7.04" orient="auto"
				markerUnits="strokeWidth" overflow="visible">
			<use xlink:href="#lend4" transform="scale(-3.52,-3.52) "/>
		</marker>
		<marker id="mrkr4-30" class="st5" v:arrowType="4" v:arrowSize="2" v:setback="6.68" refX="-6.68" orient="auto"
				markerUnits="strokeWidth" overflow="visible">
			<use xlink:href="#lend4" transform="scale(-3.52,-3.52) "/>
		</marker>
	</defs>
	<g v:mID="0" v:index="1" v:groupContext="foregroundPage">
		<v:userDefs>
			<v:ud v:nameU="msvThemeOrder" v:val="VT0(0):26"/>
		</v:userDefs>
		<title>页-1</title>
		<v:pageProperties v:drawingScale="0.0393701" v:pageScale="0.0393701" v:drawingUnits="24" v:shadowOffsetX="8.50394"
				v:shadowOffsetY="-8.50394"/>
		<v:layer v:name="连接线" v:index="0"/>
		<g id="shape34-1" v:mID="34" v:groupContext="shape" transform="translate(167.244,-74.4564)">
			<title>圆角矩形.34</title>
			<v:userDefs>
				<v:ud v:nameU="CTypeTopLeftSnip" v:prompt="" v:val="VT0(0):5"/>
				<v:ud v:nameU="CTypeTopRightSnip" v:prompt="" v:val="VT0(0):5"/>
				<v:ud v:nameU="CTypeBotLeftSnip" v:prompt="" v:val="VT0(0):5"/>
				<v:ud v:nameU="CTypeBotRightSnip" v:prompt="" v:val="VT0(0):5"/>
				<v:ud v:nameU="CornerLockHoriz" v:prompt="" v:val="VT0(1):5"/>
				<v:ud v:nameU="CornerLockVert" v:prompt="" v:val="VT0(1):5"/>
				<v:ud v:nameU="CornerLockDiag" v:prompt="" v:val="VT0(0):5"/>
				<v:ud v:nameU="TopLeftOffset" v:prompt="" v:val="VT0(0.15748031496063):24"/>
				<v:ud v:nameU="TopRightOffset" v:prompt="" v:val="VT0(0.15748031496063):24"/>
				<v:ud v:nameU="BotLeftOffset" v:prompt="" v:val="VT0(0.15748031496063):24"/>
				<v:ud v:nameU="BotRightOffset" v:prompt="" v:val="VT0(0.15748031496063):24"/>
				<v:ud v:nameU="visVersion" v:prompt="" v:val="VT0(15):26"/>
				<v:ud v:nameU="TopLeftOffset" v:prompt="" v:val="VT0(0.54330710551021):1"/>
				<v:ud v:nameU="TopRightOffset" v:prompt="" v:val="VT0(0.54330710551021):1"/>
				<v:ud v:nameU="BotLeftOffset" v:prompt="" v:val="VT0(0.54330710551021):1"/>
				<v:ud v:nameU="BotRightOffset" v:prompt="" v:val="VT0(0.54330710551021):1"/>
			</v:userDefs>
			<path d="M39.12 595.28 L352.06 595.28 A39.1175 39.1175 -180 0 0 391.18 556.16 L391.18 165.35 A39.1175 39.1175 -180 0
						 0 352.06 126.24 L39.12 126.24 A39.1175 39.1175 -180 0 0 0 165.35 L0 556.16 A39.1175 39.1175 -180 0 0 39.12
						 595.28 Z" class="st1"/>
		</g>
		<g id="shape1-3" v:mID="1" v:groupContext="shape" transform="translate(306.142,-504.567)">
			<title>圆角矩形</title>
			<desc>hidden_states</desc>
			<v:userDefs>
				<v:ud v:nameU="CTypeTopLeftSnip" v:prompt="" v:val="VT0(0):5"/>
				<v:ud v:nameU="CTypeTopRightSnip" v:prompt="" v:val="VT0(0):5"/>
				<v:ud v:nameU="CTypeBotLeftSnip" v:prompt="" v:val="VT0(0):5"/>
				<v:ud v:nameU="CTypeBotRightSnip" v:prompt="" v:val="VT0(0):5"/>
				<v:ud v:nameU="CornerLockHoriz" v:prompt="" v:val="VT0(1):5"/>
				<v:ud v:nameU="CornerLockVert" v:prompt="" v:val="VT0(1):5"/>
				<v:ud v:nameU="CornerLockDiag" v:prompt="" v:val="VT0(0):5"/>
				<v:ud v:nameU="TopLeftOffset" v:prompt="" v:val="VT0(0.15748031496063):24"/>
				<v:ud v:nameU="TopRightOffset" v:prompt="" v:val="VT0(0.15748031496063):24"/>
				<v:ud v:nameU="BotLeftOffset" v:prompt="" v:val="VT0(0.15748031496063):24"/>
				<v:ud v:nameU="BotRightOffset" v:prompt="" v:val="VT0(0.15748031496063):24"/>
				<v:ud v:nameU="visVersion" v:prompt="" v:val="VT0(15):26"/>
			</v:userDefs>
			<v:textBlock v:margins="rect(4,4,4,4)" v:tabSpace="42.5197"/>
			<v:textRect cx="56.6929" cy="581.102" width="113.39" height="28.3464"/>
			<path d="M11.34 595.28 L102.05 595.28 A11.3384 11.3384 -180 0 0 113.39 583.94 L113.39 578.27 A11.3384 11.3384 -180 0
						 0 102.05 566.93 L11.34 566.93 A11.3384 11.3384 -180 0 0 0 578.27 L0 583.94 A11.3384 11.3384 -180 0 0 11.34
						 595.28 Z" class="st2"/>
			<text x="22.16" y="584.7" class="st3" v:langID="2052"><v:paragraph v:horizAlign="1"/><v:tabList/>hidden_states</text>		</g>
		<g id="shape8-6" v:mID="8" v:groupContext="shape" v:layerMember="0" transform="translate(355.748,-504.567)">
			<title>动态连接线.8</title>
			<path d="M7.09 595.28 L7.09 622.25" class="st4"/>
		</g>
		<g id="group9-12" transform="translate(184.252,-442.205)" v:mID="9" v:groupContext="group">
			<title>工作表.9</title>
			<g id="shape2-13" v:mID="2" v:groupContext="shape">
				<title>圆角矩形.2</title>
				<desc>query_state</desc>
				<v:userDefs>
					<v:ud v:nameU="CTypeTopLeftSnip" v:prompt="" v:val="VT0(0):5"/>
					<v:ud v:nameU="CTypeTopRightSnip" v:prompt="" v:val="VT0(0):5"/>
					<v:ud v:nameU="CTypeBotLeftSnip" v:prompt="" v:val="VT0(0):5"/>
					<v:ud v:nameU="CTypeBotRightSnip" v:prompt="" v:val="VT0(0):5"/>
					<v:ud v:nameU="CornerLockHoriz" v:prompt="" v:val="VT0(1):5"/>
					<v:ud v:nameU="CornerLockVert" v:prompt="" v:val="VT0(1):5"/>
					<v:ud v:nameU="CornerLockDiag" v:prompt="" v:val="VT0(0):5"/>
					<v:ud v:nameU="TopLeftOffset" v:prompt="" v:val="VT0(0.15748031496063):24"/>
					<v:ud v:nameU="TopRightOffset" v:prompt="" v:val="VT0(0.15748031496063):24"/>
					<v:ud v:nameU="BotLeftOffset" v:prompt="" v:val="VT0(0.15748031496063):24"/>
					<v:ud v:nameU="BotRightOffset" v:prompt="" v:val="VT0(0.15748031496063):24"/>
					<v:ud v:nameU="visVersion" v:prompt="" v:val="VT0(15):26"/>
				</v:userDefs>
				<v:textBlock v:margins="rect(4,4,4,4)" v:tabSpace="42.5197"/>
				<v:textRect cx="56.6929" cy="581.102" width="113.39" height="28.3464"/>
				<path d="M11.34 595.28 L102.05 595.28 A11.3384 11.3384 -180 0 0 113.39 583.94 L113.39 578.27 A11.3384 11.3384 -180
							 0 0 102.05 566.93 L11.34 566.93 A11.3384 11.3384 -180 0 0 0 578.27 L0 583.94 A11.3384 11.3384 -180 0
							 0 11.34 595.28 Z" class="st6"/>
				<text x="27.38" y="584.7" class="st3" v:langID="2052"><v:paragraph v:horizAlign="1"/><v:tabList/>query_state</text>			</g>
			<g id="shape3-16" v:mID="3" v:groupContext="shape" transform="translate(121.89,0)">
				<title>圆角矩形.3</title>
				<desc>key_state</desc>
				<v:userDefs>
					<v:ud v:nameU="CTypeTopLeftSnip" v:prompt="" v:val="VT0(0):5"/>
					<v:ud v:nameU="CTypeTopRightSnip" v:prompt="" v:val="VT0(0):5"/>
					<v:ud v:nameU="CTypeBotLeftSnip" v:prompt="" v:val="VT0(0):5"/>
					<v:ud v:nameU="CTypeBotRightSnip" v:prompt="" v:val="VT0(0):5"/>
					<v:ud v:nameU="CornerLockHoriz" v:prompt="" v:val="VT0(1):5"/>
					<v:ud v:nameU="CornerLockVert" v:prompt="" v:val="VT0(1):5"/>
					<v:ud v:nameU="CornerLockDiag" v:prompt="" v:val="VT0(0):5"/>
					<v:ud v:nameU="TopLeftOffset" v:prompt="" v:val="VT0(0.15748031496063):24"/>
					<v:ud v:nameU="TopRightOffset" v:prompt="" v:val="VT0(0.15748031496063):24"/>
					<v:ud v:nameU="BotLeftOffset" v:prompt="" v:val="VT0(0.15748031496063):24"/>
					<v:ud v:nameU="BotRightOffset" v:prompt="" v:val="VT0(0.15748031496063):24"/>
					<v:ud v:nameU="visVersion" v:prompt="" v:val="VT0(15):26"/>
				</v:userDefs>
				<v:textBlock v:margins="rect(4,4,4,4)" v:tabSpace="42.5197"/>
				<v:textRect cx="56.6929" cy="581.102" width="113.39" height="28.3464"/>
				<path d="M11.34 595.28 L102.05 595.28 A11.3384 11.3384 -180 0 0 113.39 583.94 L113.39 578.27 A11.3384 11.3384 -180
							 0 0 102.05 566.93 L11.34 566.93 A11.3384 11.3384 -180 0 0 0 578.27 L0 583.94 A11.3384 11.3384 -180 0
							 0 11.34 595.28 Z" class="st7"/>
				<text x="33.05" y="584.7" class="st3" v:langID="2052"><v:paragraph v:horizAlign="1"/><v:tabList/>key_state</text>			</g>
			<g id="shape4-19" v:mID="4" v:groupContext="shape" transform="translate(243.78,0)">
				<title>圆角矩形.4</title>
				<desc>value_state</desc>
				<v:userDefs>
					<v:ud v:nameU="CTypeTopLeftSnip" v:prompt="" v:val="VT0(0):5"/>
					<v:ud v:nameU="CTypeTopRightSnip" v:prompt="" v:val="VT0(0):5"/>
					<v:ud v:nameU="CTypeBotLeftSnip" v:prompt="" v:val="VT0(0):5"/>
					<v:ud v:nameU="CTypeBotRightSnip" v:prompt="" v:val="VT0(0):5"/>
					<v:ud v:nameU="CornerLockHoriz" v:prompt="" v:val="VT0(1):5"/>
					<v:ud v:nameU="CornerLockVert" v:prompt="" v:val="VT0(1):5"/>
					<v:ud v:nameU="CornerLockDiag" v:prompt="" v:val="VT0(0):5"/>
					<v:ud v:nameU="TopLeftOffset" v:prompt="" v:val="VT0(0.15748031496063):24"/>
					<v:ud v:nameU="TopRightOffset" v:prompt="" v:val="VT0(0.15748031496063):24"/>
					<v:ud v:nameU="BotLeftOffset" v:prompt="" v:val="VT0(0.15748031496063):24"/>
					<v:ud v:nameU="BotRightOffset" v:prompt="" v:val="VT0(0.15748031496063):24"/>
					<v:ud v:nameU="visVersion" v:prompt="" v:val="VT0(15):26"/>
				</v:userDefs>
				<v:textBlock v:margins="rect(4,4,4,4)" v:tabSpace="42.5197"/>
				<v:textRect cx="56.6929" cy="581.102" width="113.39" height="28.3464"/>
				<path d="M11.34 595.28 L102.05 595.28 A11.3384 11.3384 -180 0 0 113.39 583.94 L113.39 578.27 A11.3384 11.3384 -180
							 0 0 102.05 566.93 L11.34 566.93 A11.3384 11.3384 -180 0 0 0 578.27 L0 583.94 A11.3384 11.3384 -180 0
							 0 11.34 595.28 Z" class="st8"/>
				<text x="28.38" y="584.7" class="st3" v:langID="2052"><v:paragraph v:horizAlign="1"/><v:tabList/>value_state</text>			</g>
		</g>
		<g id="shape10-22" v:mID="10" v:groupContext="shape" transform="translate(246.092,-351.496)">
			<title>菱形</title>
			<desc>QK*T</desc>
			<v:userDefs>
				<v:ud v:nameU="visVersion" v:prompt="" v:val="VT0(15):26"/>
			</v:userDefs>
			<v:textBlock v:margins="rect(4,4,4,4)" v:tabSpace="42.5197"/>
			<v:textRect cx="56.6929" cy="566.929" width="113.39" height="56.6929"/>
			<path d="M56.69 595.28 L113.39 566.93 L56.69 538.58 L0 566.93 L56.69 595.28 Z" class="st9"/>
			<text x="43.63" y="570.53" class="st3" v:langID="2052"><v:paragraph v:horizAlign="1"/><v:tabList/>QK*T</text>		</g>
		<g id="shape11-25" v:mID="11" v:groupContext="shape" v:layerMember="0" transform="translate(240.945,-442.205)">
			<title>动态连接线.11</title>
			<path d="M0 595.28 C-0 605.91 27.74 605.22 43.12 605.2 C57.52 605.18 61.11 605.75 61.73 622.25 L61.74 622.61"
					class="st10"/>
		</g>
		<g id="shape12-31" v:mID="12" v:groupContext="shape" v:layerMember="0" transform="translate(362.835,-442.205)">
			<title>动态连接线.12</title>
			<path d="M0 595.28 C0 605.91 -26.75 605.22 -41.69 605.2 C-55.7 605.18 -59.3 605.75 -59.94 622.25 L-59.94 622.61"
					class="st10"/>
		</g>
		<g id="shape15-36" v:mID="15" v:groupContext="shape" v:layerMember="0" transform="translate(306.142,-518.74)">
			<title>动态连接线</title>
			<path d="M0 595.28 L-65.2 595.28 L-65.2 636.42" class="st4"/>
		</g>
		<g id="shape16-41" v:mID="16" v:groupContext="shape" v:layerMember="0" transform="translate(419.528,-518.74)">
			<title>动态连接线.16</title>
			<path d="M0 595.28 L65.2 595.28 L65.2 636.42" class="st4"/>
		</g>
		<g id="shape21-46" v:mID="21" v:groupContext="shape" transform="translate(246.092,-307.559)">
			<title>圆角矩形.2</title>
			<desc>Attention_weight</desc>
			<v:userDefs>
				<v:ud v:nameU="CTypeTopLeftSnip" v:prompt="" v:val="VT0(0):5"/>
				<v:ud v:nameU="CTypeTopRightSnip" v:prompt="" v:val="VT0(0):5"/>
				<v:ud v:nameU="CTypeBotLeftSnip" v:prompt="" v:val="VT0(0):5"/>
				<v:ud v:nameU="CTypeBotRightSnip" v:prompt="" v:val="VT0(0):5"/>
				<v:ud v:nameU="CornerLockHoriz" v:prompt="" v:val="VT0(1):5"/>
				<v:ud v:nameU="CornerLockVert" v:prompt="" v:val="VT0(1):5"/>
				<v:ud v:nameU="CornerLockDiag" v:prompt="" v:val="VT0(0):5"/>
				<v:ud v:nameU="TopLeftOffset" v:prompt="" v:val="VT0(0.15748031496063):24"/>
				<v:ud v:nameU="TopRightOffset" v:prompt="" v:val="VT0(0.15748031496063):24"/>
				<v:ud v:nameU="BotLeftOffset" v:prompt="" v:val="VT0(0.15748031496063):24"/>
				<v:ud v:nameU="BotRightOffset" v:prompt="" v:val="VT0(0.15748031496063):24"/>
				<v:ud v:nameU="visVersion" v:prompt="" v:val="VT0(15):26"/>
			</v:userDefs>
			<v:textBlock v:margins="rect(4,4,4,4)" v:tabSpace="42.5197"/>
			<v:textRect cx="56.6929" cy="581.102" width="113.39" height="28.3464"/>
			<path d="M11.34 595.28 L102.05 595.28 A11.3384 11.3384 -180 0 0 113.39 583.94 L113.39 578.27 A11.3384 11.3384 -180 0
						 0 102.05 566.93 L11.34 566.93 A11.3384 11.3384 -180 0 0 0 578.27 L0 583.94 A11.3384 11.3384 -180 0 0 11.34
						 595.28 Z" class="st11"/>
			<text x="13.73" y="584.7" class="st3" v:langID="2052"><v:paragraph v:horizAlign="1"/><v:tabList/>Attention_weight</text>		</g>
		<g id="shape22-49" v:mID="22" v:groupContext="shape" transform="translate(246.092,-263.622)">
			<title>圆角矩形.22</title>
			<desc>Position_bias</desc>
			<v:userDefs>
				<v:ud v:nameU="CTypeTopLeftSnip" v:prompt="" v:val="VT0(0):5"/>
				<v:ud v:nameU="CTypeTopRightSnip" v:prompt="" v:val="VT0(0):5"/>
				<v:ud v:nameU="CTypeBotLeftSnip" v:prompt="" v:val="VT0(0):5"/>
				<v:ud v:nameU="CTypeBotRightSnip" v:prompt="" v:val="VT0(0):5"/>
				<v:ud v:nameU="CornerLockHoriz" v:prompt="" v:val="VT0(1):5"/>
				<v:ud v:nameU="CornerLockVert" v:prompt="" v:val="VT0(1):5"/>
				<v:ud v:nameU="CornerLockDiag" v:prompt="" v:val="VT0(0):5"/>
				<v:ud v:nameU="TopLeftOffset" v:prompt="" v:val="VT0(0.15748031496063):24"/>
				<v:ud v:nameU="TopRightOffset" v:prompt="" v:val="VT0(0.15748031496063):24"/>
				<v:ud v:nameU="BotLeftOffset" v:prompt="" v:val="VT0(0.15748031496063):24"/>
				<v:ud v:nameU="BotRightOffset" v:prompt="" v:val="VT0(0.15748031496063):24"/>
				<v:ud v:nameU="visVersion" v:prompt="" v:val="VT0(15):26"/>
			</v:userDefs>
			<v:textBlock v:margins="rect(4,4,4,4)" v:tabSpace="42.5197"/>
			<v:textRect cx="56.6929" cy="581.102" width="113.39" height="28.3464"/>
			<path d="M11.34 595.28 L102.05 595.28 A11.3384 11.3384 -180 0 0 113.39 583.94 L113.39 578.27 A11.3384 11.3384 -180 0
						 0 102.05 566.93 L11.34 566.93 A11.3384 11.3384 -180 0 0 0 578.27 L0 583.94 A11.3384 11.3384 -180 0 0 11.34
						 595.28 Z" class="st12"/>
			<text x="24.26" y="584.7" class="st3" v:langID="2052"><v:paragraph v:horizAlign="1"/><v:tabList/>Position_bias</text>		</g>
		<g id="shape23-52" v:mID="23" v:groupContext="shape" transform="translate(246.092,-219.685)">
			<title>圆角矩形.23</title>
			<desc>softmax</desc>
			<v:userDefs>
				<v:ud v:nameU="CTypeTopLeftSnip" v:prompt="" v:val="VT0(0):5"/>
				<v:ud v:nameU="CTypeTopRightSnip" v:prompt="" v:val="VT0(0):5"/>
				<v:ud v:nameU="CTypeBotLeftSnip" v:prompt="" v:val="VT0(0):5"/>
				<v:ud v:nameU="CTypeBotRightSnip" v:prompt="" v:val="VT0(0):5"/>
				<v:ud v:nameU="CornerLockHoriz" v:prompt="" v:val="VT0(1):5"/>
				<v:ud v:nameU="CornerLockVert" v:prompt="" v:val="VT0(1):5"/>
				<v:ud v:nameU="CornerLockDiag" v:prompt="" v:val="VT0(0):5"/>
				<v:ud v:nameU="TopLeftOffset" v:prompt="" v:val="VT0(0.15748031496063):24"/>
				<v:ud v:nameU="TopRightOffset" v:prompt="" v:val="VT0(0.15748031496063):24"/>
				<v:ud v:nameU="BotLeftOffset" v:prompt="" v:val="VT0(0.15748031496063):24"/>
				<v:ud v:nameU="BotRightOffset" v:prompt="" v:val="VT0(0.15748031496063):24"/>
				<v:ud v:nameU="visVersion" v:prompt="" v:val="VT0(15):26"/>
			</v:userDefs>
			<v:textBlock v:margins="rect(4,4,4,4)" v:tabSpace="42.5197"/>
			<v:textRect cx="56.6929" cy="581.102" width="113.39" height="28.3464"/>
			<path d="M11.34 595.28 L102.05 595.28 A11.3384 11.3384 -180 0 0 113.39 583.94 L113.39 578.27 A11.3384 11.3384 -180 0
						 0 102.05 566.93 L11.34 566.93 A11.3384 11.3384 -180 0 0 0 578.27 L0 583.94 A11.3384 11.3384 -180 0 0 11.34
						 595.28 Z" class="st13"/>
			<text x="37.08" y="584.7" class="st3" v:langID="2052"><v:paragraph v:horizAlign="1"/><v:tabList/>softmax</text>		</g>
		<g id="shape24-55" v:mID="24" v:groupContext="shape" transform="translate(246.092,-175.748)">
			<title>圆角矩形.24</title>
			<desc>matmal</desc>
			<v:userDefs>
				<v:ud v:nameU="CTypeTopLeftSnip" v:prompt="" v:val="VT0(0):5"/>
				<v:ud v:nameU="CTypeTopRightSnip" v:prompt="" v:val="VT0(0):5"/>
				<v:ud v:nameU="CTypeBotLeftSnip" v:prompt="" v:val="VT0(0):5"/>
				<v:ud v:nameU="CTypeBotRightSnip" v:prompt="" v:val="VT0(0):5"/>
				<v:ud v:nameU="CornerLockHoriz" v:prompt="" v:val="VT0(1):5"/>
				<v:ud v:nameU="CornerLockVert" v:prompt="" v:val="VT0(1):5"/>
				<v:ud v:nameU="CornerLockDiag" v:prompt="" v:val="VT0(0):5"/>
				<v:ud v:nameU="TopLeftOffset" v:prompt="" v:val="VT0(0.15748031496063):24"/>
				<v:ud v:nameU="TopRightOffset" v:prompt="" v:val="VT0(0.15748031496063):24"/>
				<v:ud v:nameU="BotLeftOffset" v:prompt="" v:val="VT0(0.15748031496063):24"/>
				<v:ud v:nameU="BotRightOffset" v:prompt="" v:val="VT0(0.15748031496063):24"/>
				<v:ud v:nameU="visVersion" v:prompt="" v:val="VT0(15):26"/>
			</v:userDefs>
			<v:textBlock v:margins="rect(4,4,4,4)" v:tabSpace="42.5197"/>
			<v:textRect cx="56.6929" cy="581.102" width="113.39" height="28.3464"/>
			<path d="M11.34 595.28 L102.05 595.28 A11.3384 11.3384 -180 0 0 113.39 583.94 L113.39 578.27 A11.3384 11.3384 -180 0
						 0 102.05 566.93 L11.34 566.93 A11.3384 11.3384 -180 0 0 0 578.27 L0 583.94 A11.3384 11.3384 -180 0 0 11.34
						 595.28 Z" class="st14"/>
			<text x="37.97" y="584.7" class="st3" v:langID="2052"><v:paragraph v:horizAlign="1"/><v:tabList/>matmal</text>		</g>
		<g id="shape25-58" v:mID="25" v:groupContext="shape" transform="translate(246.092,-131.811)">
			<title>圆角矩形.25</title>
			<desc>dropout</desc>
			<v:userDefs>
				<v:ud v:nameU="CTypeTopLeftSnip" v:prompt="" v:val="VT0(0):5"/>
				<v:ud v:nameU="CTypeTopRightSnip" v:prompt="" v:val="VT0(0):5"/>
				<v:ud v:nameU="CTypeBotLeftSnip" v:prompt="" v:val="VT0(0):5"/>
				<v:ud v:nameU="CTypeBotRightSnip" v:prompt="" v:val="VT0(0):5"/>
				<v:ud v:nameU="CornerLockHoriz" v:prompt="" v:val="VT0(1):5"/>
				<v:ud v:nameU="CornerLockVert" v:prompt="" v:val="VT0(1):5"/>
				<v:ud v:nameU="CornerLockDiag" v:prompt="" v:val="VT0(0):5"/>
				<v:ud v:nameU="TopLeftOffset" v:prompt="" v:val="VT0(0.15748031496063):24"/>
				<v:ud v:nameU="TopRightOffset" v:prompt="" v:val="VT0(0.15748031496063):24"/>
				<v:ud v:nameU="BotLeftOffset" v:prompt="" v:val="VT0(0.15748031496063):24"/>
				<v:ud v:nameU="BotRightOffset" v:prompt="" v:val="VT0(0.15748031496063):24"/>
				<v:ud v:nameU="visVersion" v:prompt="" v:val="VT0(15):26"/>
			</v:userDefs>
			<v:textBlock v:margins="rect(4,4,4,4)" v:tabSpace="42.5197"/>
			<v:textRect cx="56.6929" cy="581.102" width="113.39" height="28.3464"/>
			<path d="M11.34 595.28 L102.05 595.28 A11.3384 11.3384 -180 0 0 113.39 583.94 L113.39 578.27 A11.3384 11.3384 -180 0
						 0 102.05 566.93 L11.34 566.93 A11.3384 11.3384 -180 0 0 0 578.27 L0 583.94 A11.3384 11.3384 -180 0 0 11.34
						 595.28 Z" class="st12"/>
			<text x="36.81" y="584.7" class="st3" v:langID="2052"><v:paragraph v:horizAlign="1"/><v:tabList/>dropout</text>		</g>
		<g id="shape26-61" v:mID="26" v:groupContext="shape" transform="translate(246.092,-87.874)">
			<title>圆角矩形.26</title>
			<desc>hidden_state</desc>
			<v:userDefs>
				<v:ud v:nameU="CTypeTopLeftSnip" v:prompt="" v:val="VT0(0):5"/>
				<v:ud v:nameU="CTypeTopRightSnip" v:prompt="" v:val="VT0(0):5"/>
				<v:ud v:nameU="CTypeBotLeftSnip" v:prompt="" v:val="VT0(0):5"/>
				<v:ud v:nameU="CTypeBotRightSnip" v:prompt="" v:val="VT0(0):5"/>
				<v:ud v:nameU="CornerLockHoriz" v:prompt="" v:val="VT0(1):5"/>
				<v:ud v:nameU="CornerLockVert" v:prompt="" v:val="VT0(1):5"/>
				<v:ud v:nameU="CornerLockDiag" v:prompt="" v:val="VT0(0):5"/>
				<v:ud v:nameU="TopLeftOffset" v:prompt="" v:val="VT0(0.15748031496063):24"/>
				<v:ud v:nameU="TopRightOffset" v:prompt="" v:val="VT0(0.15748031496063):24"/>
				<v:ud v:nameU="BotLeftOffset" v:prompt="" v:val="VT0(0.15748031496063):24"/>
				<v:ud v:nameU="BotRightOffset" v:prompt="" v:val="VT0(0.15748031496063):24"/>
				<v:ud v:nameU="visVersion" v:prompt="" v:val="VT0(15):26"/>
			</v:userDefs>
			<v:textBlock v:margins="rect(4,4,4,4)" v:tabSpace="42.5197"/>
			<v:textRect cx="56.6929" cy="581.102" width="113.39" height="28.3464"/>
			<path d="M11.34 595.28 L102.05 595.28 A11.3384 11.3384 -180 0 0 113.39 583.94 L113.39 578.27 A11.3384 11.3384 -180 0
						 0 102.05 566.93 L11.34 566.93 A11.3384 11.3384 -180 0 0 0 578.27 L0 583.94 A11.3384 11.3384 -180 0 0 11.34
						 595.28 Z" class="st11"/>
			<text x="24.51" y="584.7" class="st3" v:langID="2052"><v:paragraph v:horizAlign="1"/><v:tabList/>hidden_state</text>		</g>
		<g id="shape27-64" v:mID="27" v:groupContext="shape" v:layerMember="0" transform="translate(295.698,-351.496)">
			<title>动态连接线.27</title>
			<path d="M7.09 595.28 C7.09 597.39 7.09 600.66 7.09 603.83" class="st4"/>
		</g>
		<g id="shape28-69" v:mID="28" v:groupContext="shape" v:layerMember="0" transform="translate(295.698,-307.559)">
			<title>动态连接线.28</title>
			<path d="M7.09 595.28 C7.09 597.39 7.09 600.66 7.09 603.83" class="st4"/>
		</g>
		<g id="shape29-74" v:mID="29" v:groupContext="shape" v:layerMember="0" transform="translate(295.698,-263.622)">
			<title>动态连接线.29</title>
			<path d="M7.09 595.28 C7.09 597.39 7.09 600.66 7.09 603.83" class="st4"/>
		</g>
		<g id="shape30-79" v:mID="30" v:groupContext="shape" v:layerMember="0" transform="translate(295.698,-219.685)">
			<title>动态连接线.30</title>
			<path d="M7.09 595.28 C7.09 597.39 7.09 600.66 7.09 603.83" class="st4"/>
		</g>
		<g id="shape31-84" v:mID="31" v:groupContext="shape" v:layerMember="0" transform="translate(295.698,-175.748)">
			<title>动态连接线.31</title>
			<path d="M7.09 595.28 C7.09 597.39 7.09 600.66 7.09 603.83" class="st4"/>
		</g>
		<g id="shape32-89" v:mID="32" v:groupContext="shape" v:layerMember="0" transform="translate(295.698,-131.811)">
			<title>动态连接线.32</title>
			<path d="M7.09 595.28 C7.09 597.39 7.09 600.66 7.09 603.83" class="st4"/>
		</g>
		<g id="shape33-94" v:mID="33" v:groupContext="shape" v:layerMember="0" transform="translate(484.724,-442.205)">
			<title>动态连接线.33</title>
			<path d="M0 595.28 L0 847.56 L-118.21 847.56" class="st4"/>
		</g>
	</g>
</svg>
